<svg
  version="1.1"
  baseProfile="full"
  width="100%"
  height="100%"
  xmlns="http://www.w3.org/2000/svg"
  viewBox="0 0 1400 400"
>

  <!-- 定义渐变 -->
  <defs>
    <linearGradient id="gradient" x1="0%" y1="100%" x2="0%" y2="0%">
      <stop offset="0%" style="stop-color: #FFFFFF; stop-opacity: 0" />
      <stop offset="90%" style="stop-color: #CCFF99; stop-opacity: 0.9" />
      <!-- 可以继续添加更多的stop元素，逐渐减少不透明度 -->
      <stop offset="100%" style="stop-color: #99FFCC; stop-opacity: 1" />
    </linearGradient>
  </defs>

  <!-- 使用渐变填充矩形 -->
  <rect width="100%" height="100%" fill="url(#gradient)" />

<g id="flower" fill="#FFA500" stroke="#FFA500" stroke-linecap="round" stroke-linejoin="round"
    stroke-width="4">
    <path
      d="M28.991 27.991c3.515-3.514 1.3-11.429-4.95-17.677C17.794 4.065 9.88 1.849 6.365 5.364s-1.299 11.43 4.95 17.678c6.248 6.248 14.163 8.464 17.677 4.95" />
    <path
      d="M28.991 19.065c3.515 3.514 1.299 11.429-4.95 17.677c-6.248 6.249-14.162 8.465-17.677 4.95s-1.299-11.43 4.95-17.678c6.248-6.248 14.163-8.464 17.677-4.95" />
    <path
      d="M20.009 27.991c-3.515-3.514-1.299-11.429 4.95-17.677c6.248-6.249 14.162-8.465 17.677-4.95s1.299 11.43-4.95 17.678c-6.248 6.248-14.163 8.464-17.677 4.95" />
    <path
      d="M20.009 19.065c-3.515 3.514-1.299 11.429 4.95 17.677c6.248 6.249 14.162 8.465 17.677 4.95s1.299-11.43-4.95-17.678c-6.248-6.248-14.163-8.464-17.677-4.95" />
  </g>

  <g id="mouse" fill="none">
    <path fill="#cdc4d6"
      d="M14.987 12.083a6.5 6.5 0 1 0-7.794 6.786a6.6 6.6 0 0 0-.1 1.131c0 5.226 4.17 8.28 7.736 9.33c.765.226 1.58.235 2.339-.008c3.373-1.08 7.8-4.499 7.8-9.322c0-.34-.042-.725-.13-1.138a6.5 6.5 0 1 0-7.825-6.785q-.49-.046-1.013-.046q-.516 0-1.013.052" />
    <path fill="#1c1c1c"
      d="M12 21a1 1 0 0 0-1 1v1a1 1 0 1 0 2 0v-1a1 1 0 0 0-1-1m8 0a1 1 0 0 0-1 1v1a1 1 0 1 0 2 0v-1a1 1 0 0 0-1-1" />
    <path fill="#ff8687"
      d="M12.977 12.513c-2.778.921-4.812 3.058-5.564 5.453a5 5 0 1 1 5.563-5.453M29 13a5 5 0 0 1-4.412 4.966c-.715-2.077-2.47-4.502-5.561-5.486A5 5 0 0 1 29 13M16.031 27.969c1.196 0 1.938-1.735 1.938-2.11S17.644 25 16.03 25c-1.828 0-2.015.422-2.015.86c0 .32.82 2.109 2.015 2.109" />
    <path fill="#b4acbc"
      d="M12 26.5a.5.5 0 0 0-.5-.5h-5a.5.5 0 0 0 0 1h5a.5.5 0 0 0 .5-.5m8.5-.5a.5.5 0 0 0 0 1h5a.5.5 0 0 0 0-1zm-.814 1.036a.5.5 0 1 0-.372.928l5 2a.5.5 0 1 0 .372-.928zm-7.372 0a.5.5 0 1 1 .372.928l-5 2a.5.5 0 1 1-.372-.928z" />
  </g>

  <use href="#mouse" x="200" y="200" transform-origin="220 220">
    <animateTransform attributeName="transform" type="rotate" from="0" to="360"
      dur="20s" repeatCount="indefinite" />
  </use>

  <use href="#mouse" x="300" y="300" transform-origin="320 320">
    <animateTransform attributeName="transform" type="rotate" from="0" to="360"
      dur="30s" repeatCount="indefinite" />
  </use>

  <use href="#flower" x="350" y="350" transform-origin="370 370">
    <animateTransform attributeName="transform" type="rotate" from="0" to="360"
      dur="9s" repeatCount="indefinite" />
  </use>

  <use href="#flower" x="400" y="80" transform-origin="420 100">
    <animateTransform attributeName="transform" type="translate" values="0,-20; 0,20; 0,-20" dur="7s" repeatCount="indefinite" />
  </use>

  <use href="#flower" x="550" y="200" transform-origin="570 220">
    <animateTransform attributeName="transform" type="rotate" from="0" to="360"
      dur="30s" repeatCount="indefinite" />
  </use>

  <use href="#mouse" x="700" y="50" transform-origin="720 70">
    <animateTransform attributeName="transform" type="translate" values="0,-20; 0,20; 0,-20" dur="16s" repeatCount="indefinite" />
  </use>

  <use href="#flower" x="850" y="250" transform-origin="870 270">
    <animateTransform attributeName="transform" type="rotate" from="0" to="360"
      dur="10s" repeatCount="indefinite" />
  </use>

  <use href="#flower" x="1000" y="100" transform-origin="1020 120">
    <animateTransform attributeName="transform" type="translate" values="0,-20; 0,20; 0,-20" dur="30s" repeatCount="indefinite" />
  </use>

  <use href="#flower" x="1000" y="180" transform-origin="1020 200">
    <animateTransform attributeName="transform" type="rotate" from="0" to="360"
      dur="20s" repeatCount="indefinite" />
  </use>

  <use href="#flower" x="1100" y="90" transform-origin="1120 110">
    <animateTransform attributeName="transform" type="rotate" from="0" to="360"
      dur="15s" repeatCount="indefinite" />
  </use>
</svg>
